<svg xmlns="http://www.w3.org/2000/svg" width="100" height="68" viewBox="0 0 100 68">
   <metadata><?xpacket begin="﻿" id="W5M0MpCehiHzreSzNTczkc9d"?>
 <x:xmpmeta xmlns:x="adobe:ns:meta/" x:xmptk="Adobe XMP Core 5.6-c138 79.159824, 2016/09/14-01:09:01        ">
    <rdf:RDF xmlns:rdf="http://www.w3.org/1999/02/22-rdf-syntax-ns#">
       <rdf:Description rdf:about=""/>
    </rdf:RDF>
 </x:xmpmeta>

 
                            
 <?xpacket end="w"?></metadata>
 <defs>
     <style>
       .cls-1 {
         fill: #fff;
         fill-rule: evenodd;
       }
     </style>
   </defs>
   <path id="logo" class="cls-1" d="M183.542,52.994H154.755a1.742,1.742,0,0,1-1.745-1.739V21.74A1.742,1.742,0,0,1,154.755,20h43.5A1.742,1.742,0,0,1,200,21.74V36.4A16.61,16.61,0,0,1,183.542,52.994Zm13.467-30.015H156V49.984h27.448c7.151,0,13.561-6.985,13.561-14.112V22.979Zm-49.724,64.99h-1.4c-9.075,0-15.9-7.358-15.9-16.4V52.994h-13.53a16.5,16.5,0,0,1,0-32.994h30.827a1.741,1.741,0,0,1,1.745,1.739V86.223A1.747,1.747,0,0,1,147.285,87.969Zm7.47-32.958h14.519a1.741,1.741,0,0,1,1.745,1.739V71.6A16.237,16.237,0,0,1,154.811,88h-0.056a1.741,1.741,0,0,1-1.745-1.739V56.75A1.741,1.741,0,0,1,154.755,55.011ZM156,84.417c6.355-.827,11.966-6.259,11.966-12.816V57.99H156V84.417Z" transform="translate(-100 -20)"/>
 </svg>