<svg xmlns="http://www.w3.org/2000/svg" width="121" height="28" viewBox="0 0 121 28">
   <metadata><?xpacket begin="﻿" id="W5M0MpCehiHzreSzNTczkc9d"?>
 <x:xmpmeta xmlns:x="adobe:ns:meta/" x:xmptk="Adobe XMP Core 5.6-c138 79.159824, 2016/09/14-01:09:01        ">
    <rdf:RDF xmlns:rdf="http://www.w3.org/1999/02/22-rdf-syntax-ns#">
       <rdf:Description rdf:about=""/>
    </rdf:RDF>
 </x:xmpmeta>

 
 <?xpacket end="w"?></metadata>
 <defs>
     <style>
       .cls-1 {
         fill: #fff;
         fill-rule: evenodd;
       }
     </style>
   </defs>
   <path id="logo-text" class="cls-1" d="M212.882,39.592H210.5l-0.185-.741L217.166,30h0.843v5.595h4.431a9.188,9.188,0,0,1,.146,1c0.024,0.3.036,0.6,0.036,0.926,0,0.346-.012.678-0.036,1a10.413,10.413,0,0,1-.146,1.073h-4.431v7.518a7.628,7.628,0,0,0,.182,1.854,2.727,2.727,0,0,0,.531,1.109,1.732,1.732,0,0,0,.861.558,4.352,4.352,0,0,0,1.209.148,6.121,6.121,0,0,0,1.079-.093c0.354-.06.664-0.118,0.933-0.166a7.175,7.175,0,0,1,.366,1.462,9.328,9.328,0,0,1,.11,1.354c0,0.271-.006.5-0.018,0.684s-0.029.365-.053,0.537a14.768,14.768,0,0,1-3.48.407,7.374,7.374,0,0,1-5.089-1.574q-1.756-1.574-1.758-5.131V39.592Zm13.512-4c0.366-.075.715-0.13,1.043-0.166a9.2,9.2,0,0,1,1.081-.057,7.523,7.523,0,0,1,1.079.075c0.355,0.048.7,0.111,1.043,0.184a2.188,2.188,0,0,1,.2.537c0.06,0.235.117,0.482,0.164,0.741s0.093,0.518.128,0.778,0.069,0.476.093,0.648a9.484,9.484,0,0,1,1.975-2.056,4.662,4.662,0,0,1,2.932-.907c0.241,0,.524.012,0.84,0.036a3.368,3.368,0,0,1,.7.111,7.473,7.473,0,0,1,.108.853c0.027,0.32.038,0.654,0.038,1,0,0.419-.017.877-0.056,1.368a10.116,10.116,0,0,1-.2,1.408,5.125,5.125,0,0,0-.9-0.072h-0.6a8.367,8.367,0,0,0-1.392.13,3.2,3.2,0,0,0-1.466.684,4.086,4.086,0,0,0-1.153,1.667,8.461,8.461,0,0,0-.456,3.111V54.78a11.544,11.544,0,0,1-1.32.148c-0.438.024-.864,0.036-1.281,0.036s-0.834-.012-1.263-0.036a12.786,12.786,0,0,1-1.335-.148V35.592Zm18.3,11.187A4.049,4.049,0,0,0,246.238,50a6.128,6.128,0,0,0,3.659,1,14.519,14.519,0,0,0,5.017-.929,8.61,8.61,0,0,1,.694,1.779,9.109,9.109,0,0,1,.331,2.225,17.7,17.7,0,0,1-6.445,1.109,12.339,12.339,0,0,1-4.52-.741,8.016,8.016,0,0,1-3.078-2.056,8.247,8.247,0,0,1-1.754-3.129,13.871,13.871,0,0,1,.017-7.928,9.354,9.354,0,0,1,1.737-3.222,8.237,8.237,0,0,1,2.858-2.164,9.287,9.287,0,0,1,3.972-.8,8.333,8.333,0,0,1,3.515.705,7.768,7.768,0,0,1,2.617,1.927,8.123,8.123,0,0,1,1.629,2.906,11.584,11.584,0,0,1,.552,3.614c0,0.467-.021.931-0.057,1.387s-0.08.823-.128,1.094H244.7Zm7.434-3.669a4.7,4.7,0,0,0-.971-2.87,3.059,3.059,0,0,0-2.506-1.091,3.582,3.582,0,0,0-2.783,1.037,4.9,4.9,0,0,0-1.135,2.924h7.4Zm10.032-3.518h-2.452a8.688,8.688,0,0,1-.167-1.019c-0.035-.359-0.053-0.7-0.053-1.019a8.827,8.827,0,0,1,.22-1.963h7.541V54.744a15.459,15.459,0,0,1-2.562.22,15.277,15.277,0,0,1-2.527-.22V39.592ZM261.4,32.369a14.484,14.484,0,0,1-.221-2.481A14.93,14.93,0,0,1,261.4,27.4c0.414-.072.861-0.13,1.334-0.166s0.912-.057,1.3-0.057c0.414,0,.864.021,1.352,0.057s0.942,0.093,1.356.166a10.89,10.89,0,0,1,.146,1.242c0.024,0.407.036,0.82,0.036,1.242q0,0.592-.036,1.221a10.808,10.808,0,0,1-.146,1.26,10.957,10.957,0,0,1-1.338.148c-0.474.024-.921,0.036-1.335,0.036-0.39,0-.831-0.012-1.317-0.036A11.007,11.007,0,0,1,261.4,32.369Zm10.982,3.223a9.331,9.331,0,0,1,1.025-.166,10.062,10.062,0,0,1,1.135-.057,9.133,9.133,0,0,1,1.1.057,9.609,9.609,0,0,1,.986.166,2.144,2.144,0,0,1,.2.537c0.059,0.235.116,0.482,0.164,0.742s0.092,0.513.128,0.76,0.068,0.455.092,0.63a8.644,8.644,0,0,1,.879-1.112,6.29,6.29,0,0,1,1.189-1,6.443,6.443,0,0,1,1.519-.721,5.894,5.894,0,0,1,1.869-.28,6.257,6.257,0,0,1,4.85,1.779q1.627,1.777,1.63,5.595V54.744a15.461,15.461,0,0,1-5.2,0V43.927a6.361,6.361,0,0,0-.605-3.075,2.208,2.208,0,0,0-2.1-1.076,4.7,4.7,0,0,0-1.281.187,2.7,2.7,0,0,0-1.192.721,3.919,3.919,0,0,0-.861,1.5,8.05,8.05,0,0,0-.327,2.52V54.744a15.467,15.467,0,0,1-5.2,0V35.592Zm29.51,19.595a9.777,9.777,0,0,1-4.011-.76,7.628,7.628,0,0,1-2.818-2.11,9.237,9.237,0,0,1-1.684-3.168,13.088,13.088,0,0,1-.566-3.925,13.483,13.483,0,0,1,.566-3.964,9.191,9.191,0,0,1,1.684-3.2,7.814,7.814,0,0,1,2.818-2.131,9.582,9.582,0,0,1,4.011-.778,9.706,9.706,0,0,1,4.028.778,7.921,7.921,0,0,1,2.854,2.131,8.81,8.81,0,0,1,1.684,3.2A13.894,13.894,0,0,1,311,45.224a13.486,13.486,0,0,1-.551,3.925,8.846,8.846,0,0,1-1.684,3.168,7.733,7.733,0,0,1-2.854,2.11A9.9,9.9,0,0,1,301.887,55.187Zm0-4a3.143,3.143,0,0,0,2.946-1.538,8.876,8.876,0,0,0,.9-4.425,8.888,8.888,0,0,0-.9-4.428,3.143,3.143,0,0,0-2.946-1.538,3.111,3.111,0,0,0-2.911,1.538,8.888,8.888,0,0,0-.9,4.428,8.876,8.876,0,0,0,.9,4.425A3.111,3.111,0,0,0,301.887,51.186Zm12.886-15.594a15.269,15.269,0,0,1,5.2,0v10.15a10.894,10.894,0,0,0,.239,2.5,3.653,3.653,0,0,0,.733,1.556,2.721,2.721,0,0,0,1.225.817,5.547,5.547,0,0,0,1.722.241,8.376,8.376,0,0,0,2.27-.262v-15a15.464,15.464,0,0,1,2.563-.223,15.639,15.639,0,0,1,2.6.223V54a24.634,24.634,0,0,1-3.093.8,20.153,20.153,0,0,1-4.008.389,21.288,21.288,0,0,1-3.59-.3,6.977,6.977,0,0,1-3.018-1.26,6.486,6.486,0,0,1-2.071-2.816,13.054,13.054,0,0,1-.769-4.926v-10.3Z" transform="translate(-210.312 -27.188)"/>
 </svg>